<svg width="255" height="254" viewBox="0 0 255 254" fill="none" xmlns="http://www.w3.org/2000/svg">
<g filter="url(#filter0_ddii_1_267)">
<g clip-path="url(#clip0_1_267)">
<rect x="15.3738" y="8" width="221" height="228" rx="20" fill="white"/>
<path d="M183.252 153.831C184.367 155.057 186.269 155.15 187.45 153.988C199.976 141.667 207.936 125.407 209.954 107.893C211.972 90.3788 207.919 72.7342 198.523 57.8873C197.637 56.4873 195.764 56.1457 194.399 57.0855L193.158 57.9406C191.793 58.8804 191.455 60.7453 192.335 62.149C200.704 75.4973 204.306 91.3235 202.496 107.033C200.686 122.743 193.578 137.336 182.393 148.431C181.217 149.598 181.122 151.491 182.237 152.716L183.252 153.831Z" fill="#020024"/>
<path d="M53.1204 83.7488C51.4921 83.4427 49.9178 84.5142 49.6753 86.1532C47.8354 98.5907 49.0661 111.306 53.2807 123.184C57.4953 135.062 64.5546 145.709 73.8226 154.205C75.0439 155.325 76.9414 155.164 78.0126 153.9L78.9873 152.75C80.0585 151.486 79.8973 149.598 78.6807 148.473C70.4219 140.838 64.1272 131.301 60.356 120.673C56.5848 110.045 55.4607 98.6743 57.0599 87.5412C57.2954 85.9011 56.2303 84.3335 54.602 84.0274L53.1204 83.7488Z" fill="#595E60"/>
<path d="M189.648 54.5222C190.914 53.4537 191.079 51.5564 189.962 50.3326C178.453 37.7228 163.077 29.2921 146.257 26.3696C144.625 26.086 143.113 27.2449 142.893 28.8871L142.693 30.3813C142.473 32.0235 143.628 33.5264 145.259 33.8169C160.232 36.4833 173.92 43.9886 184.219 55.1783C185.341 56.3973 187.23 56.5628 188.496 55.4943L189.648 54.5222Z" fill="#00C6C3"/>
<path d="M138.698 28.1648C138.989 26.5335 137.902 24.9697 136.261 24.743C118.588 22.3027 100.579 26.0711 85.3354 35.4585C70.0916 44.8459 58.6211 59.2315 52.8462 76.1114C52.3098 77.6791 53.2172 79.3535 54.8046 79.8284L56.2489 80.2605C57.8362 80.7354 59.5017 79.8309 60.0446 78.2655C65.2869 63.1502 75.5973 50.2723 89.2721 41.8511C102.947 33.4299 119.087 30.0189 134.944 32.1407C136.587 32.3604 138.144 31.2802 138.434 29.649L138.698 28.1648Z" fill="#A7AFAC"/>
<mask id="path-6-inside-1_1_267" fill="white">
<path d="M82.8039 146.034C74.5639 137.046 69.1096 125.86 67.1027 113.832C65.0958 101.805 66.6227 89.454 71.4979 78.2776C76.3732 67.1011 84.3873 57.5798 94.568 50.8689C104.749 44.158 116.658 40.546 128.851 40.4712C141.045 40.3963 152.997 43.8618 163.26 50.4472C173.522 57.0327 181.652 66.4549 186.664 77.5706C191.677 88.6864 193.355 101.018 191.496 113.069C189.637 125.12 184.32 136.372 176.191 145.461L129.238 103.464L82.8039 146.034Z"/>
</mask>
<path d="M82.8039 146.034C74.5639 137.046 69.1096 125.86 67.1027 113.832C65.0958 101.805 66.6227 89.454 71.4979 78.2776C76.3732 67.1011 84.3873 57.5798 94.568 50.8689C104.749 44.158 116.658 40.546 128.851 40.4712C141.045 40.3963 152.997 43.8618 163.26 50.4472C173.522 57.0327 181.652 66.4549 186.664 77.5706C191.677 88.6864 193.355 101.018 191.496 113.069C189.637 125.12 184.32 136.372 176.191 145.461L129.238 103.464L82.8039 146.034Z" stroke="#909090" stroke-opacity="0.5" stroke-width="2" stroke-dasharray="10 10" mask="url(#path-6-inside-1_1_267)"/>
<g filter="url(#filter1_ddddii_1_267)">
<circle cx="129.238" cy="103.464" r="50.1694" transform="rotate(2.48627 129.238 103.464)" fill="white"/>
</g>
<path d="M119.31 90.895L119.31 91.783L117.03 91.783L117.03 99.259L115.938 99.259L115.938 91.783L113.646 91.783L113.646 90.895L119.31 90.895ZM124.002 99.367C123.386 99.367 122.826 99.227 122.322 98.947C121.826 98.667 121.434 98.271 121.146 97.759C120.866 97.239 120.726 96.639 120.726 95.959C120.726 95.287 120.87 94.695 121.158 94.183C121.454 93.663 121.854 93.267 122.358 92.995C122.862 92.715 123.426 92.575 124.05 92.575C124.674 92.575 125.238 92.715 125.742 92.995C126.246 93.267 126.642 93.659 126.93 94.171C127.226 94.683 127.374 95.279 127.374 95.959C127.374 96.639 127.222 97.239 126.918 97.759C126.622 98.271 126.218 98.667 125.706 98.947C125.194 99.227 124.626 99.367 124.002 99.367ZM124.002 98.407C124.394 98.407 124.762 98.315 125.106 98.131C125.45 97.947 125.726 97.671 125.934 97.303C126.15 96.935 126.258 96.487 126.258 95.959C126.258 95.431 126.154 94.983 125.946 94.615C125.738 94.247 125.466 93.975 125.13 93.799C124.794 93.615 124.43 93.523 124.038 93.523C123.638 93.523 123.27 93.615 122.934 93.799C122.606 93.975 122.342 94.247 122.142 94.615C121.942 94.983 121.842 95.431 121.842 95.959C121.842 96.495 121.938 96.947 122.13 97.315C122.33 97.683 122.594 97.959 122.922 98.143C123.25 98.319 123.61 98.407 124.002 98.407ZM130.622 93.583L130.622 97.459C130.622 97.779 130.69 98.007 130.826 98.143C130.962 98.271 131.198 98.335 131.534 98.335L132.338 98.335L132.338 99.259L131.354 99.259C130.746 99.259 130.29 99.119 129.986 98.839C129.682 98.559 129.53 98.099 129.53 97.459L129.53 93.583L128.678 93.583L128.678 92.683L129.53 92.683L129.53 91.027L130.622 91.027L130.622 92.683L132.338 92.683L132.338 93.583L130.622 93.583ZM133.733 95.947C133.733 95.275 133.869 94.687 134.141 94.183C134.413 93.671 134.785 93.275 135.257 92.995C135.737 92.715 136.269 92.575 136.853 92.575C137.429 92.575 137.929 92.699 138.353 92.947C138.777 93.195 139.093 93.507 139.301 93.883L139.301 92.683L140.405 92.683L140.405 99.259L139.301 99.259L139.301 98.035C139.085 98.419 138.761 98.739 138.329 98.995C137.905 99.243 137.409 99.367 136.841 99.367C136.257 99.367 135.729 99.223 135.257 98.935C134.785 98.647 134.413 98.243 134.141 97.723C133.869 97.203 133.733 96.611 133.733 95.947ZM139.301 95.959C139.301 95.463 139.201 95.031 139.001 94.663C138.801 94.295 138.529 94.015 138.185 93.823C137.849 93.623 137.477 93.523 137.069 93.523C136.661 93.523 136.289 93.619 135.953 93.811C135.617 94.003 135.349 94.283 135.149 94.651C134.949 95.019 134.849 95.451 134.849 95.947C134.849 96.451 134.949 96.891 135.149 97.267C135.349 97.635 135.617 97.919 135.953 98.119C136.289 98.311 136.661 98.407 137.069 98.407C137.477 98.407 137.849 98.311 138.185 98.119C138.529 97.919 138.801 97.635 139.001 97.267C139.201 96.891 139.301 96.455 139.301 95.959ZM143.822 90.379L143.822 99.259L142.73 99.259L142.73 90.379L143.822 90.379Z" fill="#121212" fill-opacity="0.6"/>
<path d="M107.885 120.445C107.885 120.93 107.759 121.388 107.507 121.817C107.264 122.237 106.9 122.587 106.415 122.867C105.939 123.138 105.374 123.296 104.721 123.343L104.721 124.477L103.825 124.477L103.825 123.329C102.891 123.245 102.14 122.965 101.571 122.489C101.001 122.004 100.707 121.35 100.689 120.529L102.789 120.529C102.845 121.201 103.19 121.607 103.825 121.747L103.825 119.073C103.153 118.905 102.611 118.737 102.201 118.569C101.79 118.401 101.435 118.13 101.137 117.757C100.838 117.384 100.689 116.875 100.689 116.231C100.689 115.419 100.978 114.756 101.557 114.243C102.145 113.73 102.901 113.436 103.825 113.361L103.825 112.227L104.721 112.227L104.721 113.361C105.617 113.436 106.331 113.706 106.863 114.173C107.404 114.64 107.707 115.284 107.773 116.105L105.659 116.105C105.631 115.834 105.533 115.601 105.365 115.405C105.206 115.2 104.991 115.055 104.721 114.971L104.721 117.617C105.421 117.794 105.971 117.967 106.373 118.135C106.783 118.294 107.138 118.56 107.437 118.933C107.735 119.297 107.885 119.801 107.885 120.445ZM102.733 116.133C102.733 116.441 102.826 116.693 103.013 116.889C103.199 117.076 103.47 117.23 103.825 117.351L103.825 114.929C103.489 114.976 103.223 115.102 103.027 115.307C102.831 115.512 102.733 115.788 102.733 116.133ZM104.721 121.775C105.075 121.71 105.351 121.565 105.547 121.341C105.752 121.117 105.855 120.846 105.855 120.529C105.855 120.221 105.757 119.974 105.561 119.787C105.365 119.6 105.085 119.446 104.721 119.325L104.721 121.775ZM110.745 121.047C111.641 120.3 112.355 119.68 112.887 119.185C113.419 118.681 113.862 118.158 114.217 117.617C114.572 117.076 114.749 116.544 114.749 116.021C114.749 115.545 114.637 115.172 114.413 114.901C114.189 114.63 113.844 114.495 113.377 114.495C112.91 114.495 112.551 114.654 112.299 114.971C112.047 115.279 111.916 115.704 111.907 116.245L110.003 116.245C110.04 115.125 110.372 114.276 110.997 113.697C111.632 113.118 112.434 112.829 113.405 112.829C114.469 112.829 115.286 113.114 115.855 113.683C116.424 114.243 116.709 114.985 116.709 115.909C116.709 116.637 116.513 117.332 116.121 117.995C115.729 118.658 115.281 119.236 114.777 119.731C114.273 120.216 113.615 120.804 112.803 121.495L116.933 121.495L116.933 123.119L110.017 123.119L110.017 121.663L110.745 121.047ZM123.74 115.601C123.647 115.209 123.483 114.915 123.25 114.719C123.026 114.523 122.699 114.425 122.27 114.425C121.626 114.425 121.15 114.686 120.842 115.209C120.543 115.722 120.389 116.562 120.38 117.729C120.604 117.356 120.931 117.066 121.36 116.861C121.789 116.646 122.256 116.539 122.76 116.539C123.367 116.539 123.903 116.67 124.37 116.931C124.837 117.192 125.201 117.575 125.462 118.079C125.723 118.574 125.854 119.171 125.854 119.871C125.854 120.534 125.719 121.126 125.448 121.649C125.187 122.162 124.799 122.564 124.286 122.853C123.773 123.142 123.161 123.287 122.452 123.287C121.481 123.287 120.716 123.072 120.156 122.643C119.605 122.214 119.218 121.616 118.994 120.851C118.779 120.076 118.672 119.124 118.672 117.995C118.672 116.287 118.966 114.999 119.554 114.131C120.142 113.254 121.071 112.815 122.34 112.815C123.32 112.815 124.081 113.081 124.622 113.613C125.163 114.145 125.476 114.808 125.56 115.601L123.74 115.601ZM122.312 118.149C121.817 118.149 121.402 118.294 121.066 118.583C120.73 118.872 120.562 119.292 120.562 119.843C120.562 120.394 120.716 120.828 121.024 121.145C121.341 121.462 121.785 121.621 122.354 121.621C122.858 121.621 123.255 121.467 123.544 121.159C123.843 120.851 123.992 120.436 123.992 119.913C123.992 119.372 123.847 118.942 123.558 118.625C123.278 118.308 122.863 118.149 122.312 118.149ZM128.775 123.357C128.42 123.357 128.126 123.25 127.893 123.035C127.669 122.811 127.557 122.536 127.557 122.209C127.557 121.882 127.669 121.612 127.893 121.397C128.126 121.173 128.42 121.061 128.775 121.061C129.12 121.061 129.405 121.173 129.629 121.397C129.853 121.612 129.965 121.882 129.965 122.209C129.965 122.536 129.853 122.811 129.629 123.035C129.405 123.25 129.12 123.357 128.775 123.357ZM138.46 114.747L133.924 114.747L133.924 117.141C134.12 116.898 134.4 116.702 134.764 116.553C135.128 116.394 135.515 116.315 135.926 116.315C136.672 116.315 137.284 116.478 137.76 116.805C138.236 117.132 138.581 117.552 138.796 118.065C139.01 118.569 139.118 119.11 139.118 119.689C139.118 120.762 138.81 121.626 138.194 122.279C137.587 122.932 136.719 123.259 135.59 123.259C134.526 123.259 133.676 122.993 133.042 122.461C132.407 121.929 132.048 121.234 131.964 120.375L133.868 120.375C133.952 120.748 134.138 121.047 134.428 121.271C134.726 121.495 135.104 121.607 135.562 121.607C136.112 121.607 136.528 121.434 136.808 121.089C137.088 120.744 137.228 120.286 137.228 119.717C137.228 119.138 137.083 118.7 136.794 118.401C136.514 118.093 136.098 117.939 135.548 117.939C135.156 117.939 134.829 118.037 134.568 118.233C134.306 118.429 134.12 118.69 134.008 119.017L132.132 119.017L132.132 113.025L138.46 113.025L138.46 114.747ZM140.89 118.023C140.89 116.408 141.179 115.144 141.758 114.229C142.346 113.314 143.316 112.857 144.67 112.857C146.023 112.857 146.989 113.314 147.568 114.229C148.156 115.144 148.45 116.408 148.45 118.023C148.45 119.647 148.156 120.921 147.568 121.845C146.989 122.769 146.023 123.231 144.67 123.231C143.316 123.231 142.346 122.769 141.758 121.845C141.179 120.921 140.89 119.647 140.89 118.023ZM146.518 118.023C146.518 117.332 146.471 116.754 146.378 116.287C146.294 115.811 146.116 115.424 145.846 115.125C145.584 114.826 145.192 114.677 144.67 114.677C144.147 114.677 143.75 114.826 143.48 115.125C143.218 115.424 143.041 115.811 142.948 116.287C142.864 116.754 142.822 117.332 142.822 118.023C142.822 118.732 142.864 119.33 142.948 119.815C143.032 120.291 143.209 120.678 143.48 120.977C143.75 121.266 144.147 121.411 144.67 121.411C145.192 121.411 145.589 121.266 145.86 120.977C146.13 120.678 146.308 120.291 146.392 119.815C146.476 119.33 146.518 118.732 146.518 118.023ZM150.22 118.023C150.22 116.408 150.51 115.144 151.088 114.229C151.676 113.314 152.647 112.857 154 112.857C155.354 112.857 156.32 113.314 156.898 114.229C157.486 115.144 157.78 116.408 157.78 118.023C157.78 119.647 157.486 120.921 156.898 121.845C156.32 122.769 155.354 123.231 154 123.231C152.647 123.231 151.676 122.769 151.088 121.845C150.51 120.921 150.22 119.647 150.22 118.023ZM155.848 118.023C155.848 117.332 155.802 116.754 155.708 116.287C155.624 115.811 155.447 115.424 155.176 115.125C154.915 114.826 154.523 114.677 154 114.677C153.478 114.677 153.081 114.826 152.81 115.125C152.549 115.424 152.372 115.811 152.278 116.287C152.194 116.754 152.152 117.332 152.152 118.023C152.152 118.732 152.194 119.33 152.278 119.815C152.362 120.291 152.54 120.678 152.81 120.977C153.081 121.266 153.478 121.411 154 121.411C154.523 121.411 154.92 121.266 155.19 120.977C155.461 120.678 155.638 120.291 155.722 119.815C155.806 119.33 155.848 118.732 155.848 118.023Z" fill="black"/>
<rect x="26.4363" y="179.35" width="18.9258" height="16" rx="5" fill="#121212" fill-opacity="0.05"/>
<rect x="53.3621" y="179.35" width="171.949" height="16" rx="5" fill="#121212" fill-opacity="0.05"/>
<rect x="26.4363" y="204.35" width="18.9258" height="16" rx="5" fill="#121212" fill-opacity="0.05"/>
<rect x="53.3621" y="204.35" width="171.949" height="16" rx="5" fill="#121212" fill-opacity="0.05"/>
</g>
</g>
<defs>
<filter id="filter0_ddii_1_267" x="0.373779" y="0" width="254" height="254" filterUnits="userSpaceOnUse" color-interpolation-filters="sRGB">
<feFlood flood-opacity="0" result="BackgroundImageFix"/>
<feColorMatrix in="SourceAlpha" type="matrix" values="0 0 0 0 0 0 0 0 0 0 0 0 0 0 0 0 0 0 127 0" result="hardAlpha"/>
<feOffset dx="5" dy="5"/>
<feGaussianBlur stdDeviation="6.5"/>
<feColorMatrix type="matrix" values="0 0 0 0 0.901961 0 0 0 0 0.901961 0 0 0 0 0.901961 0 0 0 0.9 0"/>
<feBlend mode="normal" in2="BackgroundImageFix" result="effect1_dropShadow_1_267"/>
<feColorMatrix in="SourceAlpha" type="matrix" values="0 0 0 0 0 0 0 0 0 0 0 0 0 0 0 0 0 0 127 0" result="hardAlpha"/>
<feOffset dx="-5" dy="5"/>
<feGaussianBlur stdDeviation="5"/>
<feColorMatrix type="matrix" values="0 0 0 0 0.901961 0 0 0 0 0.901961 0 0 0 0 0.901961 0 0 0 0.2 0"/>
<feBlend mode="normal" in2="effect1_dropShadow_1_267" result="effect2_dropShadow_1_267"/>
<feBlend mode="normal" in="SourceGraphic" in2="effect2_dropShadow_1_267" result="shape"/>
<feColorMatrix in="SourceAlpha" type="matrix" values="0 0 0 0 0 0 0 0 0 0 0 0 0 0 0 0 0 0 127 0" result="hardAlpha"/>
<feOffset dx="-1" dy="-1"/>
<feGaussianBlur stdDeviation="1"/>
<feComposite in2="hardAlpha" operator="arithmetic" k2="-1" k3="1"/>
<feColorMatrix type="matrix" values="0 0 0 0 0.901961 0 0 0 0 0.901961 0 0 0 0 0.901961 0 0 0 0.5 0"/>
<feBlend mode="normal" in2="shape" result="effect3_innerShadow_1_267"/>
<feColorMatrix in="SourceAlpha" type="matrix" values="0 0 0 0 0 0 0 0 0 0 0 0 0 0 0 0 0 0 127 0" result="hardAlpha"/>
<feOffset dx="1" dy="1"/>
<feGaussianBlur stdDeviation="1"/>
<feComposite in2="hardAlpha" operator="arithmetic" k2="-1" k3="1"/>
<feColorMatrix type="matrix" values="0 0 0 0 1 0 0 0 0 1 0 0 0 0 1 0 0 0 0.3 0"/>
<feBlend mode="normal" in2="effect3_innerShadow_1_267" result="effect4_innerShadow_1_267"/>
</filter>
<filter id="filter1_ddddii_1_267" x="64.0677" y="38.2941" width="133.341" height="133.341" filterUnits="userSpaceOnUse" color-interpolation-filters="sRGB">
<feFlood flood-opacity="0" result="BackgroundImageFix"/>
<feColorMatrix in="SourceAlpha" type="matrix" values="0 0 0 0 0 0 0 0 0 0 0 0 0 0 0 0 0 0 127 0" result="hardAlpha"/>
<feOffset dx="5" dy="5"/>
<feGaussianBlur stdDeviation="6.5"/>
<feColorMatrix type="matrix" values="0 0 0 0 0.901961 0 0 0 0 0.901961 0 0 0 0 0.901961 0 0 0 0.9 0"/>
<feBlend mode="normal" in2="BackgroundImageFix" result="effect1_dropShadow_1_267"/>
<feColorMatrix in="SourceAlpha" type="matrix" values="0 0 0 0 0 0 0 0 0 0 0 0 0 0 0 0 0 0 127 0" result="hardAlpha"/>
<feOffset dx="-5" dy="-5"/>
<feGaussianBlur stdDeviation="5"/>
<feColorMatrix type="matrix" values="0 0 0 0 1 0 0 0 0 1 0 0 0 0 1 0 0 0 0.9 0"/>
<feBlend mode="normal" in2="effect1_dropShadow_1_267" result="effect2_dropShadow_1_267"/>
<feColorMatrix in="SourceAlpha" type="matrix" values="0 0 0 0 0 0 0 0 0 0 0 0 0 0 0 0 0 0 127 0" result="hardAlpha"/>
<feOffset dx="5" dy="-5"/>
<feGaussianBlur stdDeviation="5"/>
<feColorMatrix type="matrix" values="0 0 0 0 0.901961 0 0 0 0 0.901961 0 0 0 0 0.901961 0 0 0 0.2 0"/>
<feBlend mode="normal" in2="effect2_dropShadow_1_267" result="effect3_dropShadow_1_267"/>
<feColorMatrix in="SourceAlpha" type="matrix" values="0 0 0 0 0 0 0 0 0 0 0 0 0 0 0 0 0 0 127 0" result="hardAlpha"/>
<feOffset dx="-5" dy="5"/>
<feGaussianBlur stdDeviation="5"/>
<feColorMatrix type="matrix" values="0 0 0 0 0.901961 0 0 0 0 0.901961 0 0 0 0 0.901961 0 0 0 0.2 0"/>
<feBlend mode="normal" in2="effect3_dropShadow_1_267" result="effect4_dropShadow_1_267"/>
<feBlend mode="normal" in="SourceGraphic" in2="effect4_dropShadow_1_267" result="shape"/>
<feColorMatrix in="SourceAlpha" type="matrix" values="0 0 0 0 0 0 0 0 0 0 0 0 0 0 0 0 0 0 127 0" result="hardAlpha"/>
<feOffset dx="-1" dy="-1"/>
<feGaussianBlur stdDeviation="1"/>
<feComposite in2="hardAlpha" operator="arithmetic" k2="-1" k3="1"/>
<feColorMatrix type="matrix" values="0 0 0 0 0.901961 0 0 0 0 0.901961 0 0 0 0 0.901961 0 0 0 0.5 0"/>
<feBlend mode="normal" in2="shape" result="effect5_innerShadow_1_267"/>
<feColorMatrix in="SourceAlpha" type="matrix" values="0 0 0 0 0 0 0 0 0 0 0 0 0 0 0 0 0 0 127 0" result="hardAlpha"/>
<feOffset dx="1" dy="1"/>
<feGaussianBlur stdDeviation="1"/>
<feComposite in2="hardAlpha" operator="arithmetic" k2="-1" k3="1"/>
<feColorMatrix type="matrix" values="0 0 0 0 1 0 0 0 0 1 0 0 0 0 1 0 0 0 0.3 0"/>
<feBlend mode="normal" in2="effect5_innerShadow_1_267" result="effect6_innerShadow_1_267"/>
</filter>
<clipPath id="clip0_1_267">
<rect x="15.3738" y="8" width="221" height="228" rx="20" fill="white"/>
</clipPath>
</defs>
</svg>
