<svg width="43" height="42" viewBox="0 0 43 42" fill="none" xmlns="http://www.w3.org/2000/svg">
<path d="M0.928711 41.6266H42.2576V0.373383H0.928711V41.6266Z" fill="white"/>
<path d="M19.1508 18.5535C25.6634 18.5535 25.6634 18.5535 25.6634 18.5535C26.6835 18.5535 27.7003 17.575 27.7003 16.1093C27.7003 14.7634 26.8862 13.7849 25.4608 13.7849C14.6718 13.7849 14.6717 13.7849 14.6717 13.7849C14.6717 28.3424 14.6717 28.3424 14.6717 28.3424C25.7664 28.3424 25.7664 28.3424 25.7664 28.3424C27.5972 28.4622 28.6174 27.2401 28.6174 25.6506C28.6174 23.9372 27.5972 22.8349 25.8695 22.9587C17.0143 22.9587 17.0143 22.9587 17.0143 22.9587C19.1509 18.5535 19.1508 18.5535 19.1508 18.5535ZM33.093 25.8942C33.093 29.6884 30.4482 32.5 26.1752 32.5C10.093 32.5 10.093 32.5 10.093 32.5C10.093 9.50349 10.093 9.50349 10.093 9.50349C26.0721 9.50349 26.0721 9.50349 26.0721 9.50349C29.7372 9.37973 32.1794 12.5628 32.1794 16.1093C32.1794 19.4122 30.2455 20.6343 30.2455 20.6343C30.2455 20.6343 33.093 21.9803 33.093 25.8942Z" fill="#909090"/>
</svg>
