<svg width="116" height="16" viewBox="0 0 116 16" fill="none" xmlns="http://www.w3.org/2000/svg">
<path d="M12.8751 10.5706C12.8751 9.54218 12.2311 8.8998 11.0726 8.8998C3.34751 8.8998 3.34752 8.8998 3.34752 8.8998C3.34752 12.2413 3.34752 12.2413 3.34752 12.2413C11.0726 12.2413 11.0726 12.2413 11.0726 12.2413C12.2311 12.3698 12.8751 11.5985 12.8751 10.5706ZM12.3602 4.91588C12.3602 4.01632 11.7162 3.37353 10.815 3.37353C3.34752 3.37353 3.34752 3.37353 3.34752 3.37353C3.34752 6.32946 3.34752 6.32946 3.34752 6.32946C10.9436 6.32946 10.9436 6.32946 10.9436 6.32946C11.5876 6.32946 12.3602 5.68664 12.3602 4.91588ZM16.0937 10.8273C16.0937 13.1409 14.1626 14.8117 11.2013 14.8117C0.257565 14.8117 0.257568 14.8117 0.257568 14.8117C0.257568 0.803214 0.257568 0.803192 0.257568 0.803192C11.2013 0.803192 11.2013 0.803192 11.2013 0.803192C13.7763 0.803192 15.3211 2.60239 15.3211 4.78711C15.3211 6.84347 14.034 7.48622 14.034 7.48622C14.034 7.48622 16.0937 8.38584 16.0937 10.8273Z" fill="white"/>
<path d="M25.6212 5.04435C22.7889 5.04435 21.2437 6.71511 21.2437 8.89983C21.2437 11.0846 22.7889 12.6265 25.6212 12.6265C28.3249 12.6265 29.9987 11.0846 29.9987 8.89983C29.9987 6.71511 28.3249 5.04435 25.6212 5.04435ZM25.6212 15.1968C21.1151 15.1968 18.0251 12.4981 18.0251 8.89983C18.0251 5.30157 21.1151 2.60239 25.6212 2.60239C30.1278 2.60239 33.0887 5.30157 33.0887 8.89983C33.0887 12.3697 30.1278 15.1968 25.6212 15.1968Z" fill="white"/>
<path d="M92.3142 5.04435C89.6114 5.04435 87.9385 6.71511 87.9385 8.89983C87.9385 11.0846 89.6114 12.6265 92.3142 12.6265C95.1474 12.6265 96.6899 11.0846 96.6899 8.89983C96.6899 6.71511 95.1474 5.04435 92.3142 5.04435ZM92.3142 15.1968C87.8081 15.1968 84.8446 12.4981 84.8446 8.89983C84.8446 5.30157 87.8081 2.60239 92.3142 2.60239C96.8203 2.60239 99.9098 5.30157 99.9098 8.89983C99.9098 12.3697 96.8203 15.1968 92.3142 15.1968Z" fill="white"/>
<path d="M42.0995 15.1968C37.8541 15.1968 35.4077 13.2693 35.4077 10.699C35.4077 2.8596 35.4077 2.85959 35.4077 2.85959C38.4972 2.85959 38.4972 2.85959 38.4972 2.85959C38.4972 10.4417 38.4972 10.4418 38.4972 10.4418C38.4972 11.8558 39.7835 12.6265 42.0995 12.6265C44.5459 12.6265 45.8365 11.8558 45.8365 10.4418C45.8365 2.85962 45.8365 2.85959 45.8365 2.85959C48.7957 2.85959 48.7957 2.85959 48.7957 2.85959C48.7957 10.699 48.7957 10.699 48.7957 10.699C48.7957 13.2693 46.3492 15.1968 42.0995 15.1968Z" fill="white"/>
<path d="M62.314 6.71507C62.314 5.94386 61.8013 5.30155 60.7714 5.30155C55.1051 5.30155 55.1051 5.30155 55.1051 5.30155C55.1051 8.38584 55.1051 8.38586 55.1051 8.38586C60.8974 8.38586 60.8974 8.38586 60.8974 8.38586C61.8013 8.38586 62.314 7.61463 62.314 6.71507ZM62.4444 14.8117C59.8676 10.9562 59.8676 10.9562 59.8676 10.9562C55.1052 10.9562 55.1051 10.9562 55.1051 10.9562C55.1051 14.8117 55.1051 14.8117 55.1051 14.8117C52.0156 14.8117 52.0156 14.8117 52.0156 14.8117C52.0156 2.8596 52.0156 2.85959 52.0156 2.85959C61.1582 2.85959 61.1582 2.85959 61.1582 2.85959C63.7306 2.85959 65.4036 4.53034 65.4036 6.97188C65.4036 8.64262 64.6344 9.92778 63.0875 10.5706C65.9207 14.8117 65.9207 14.8117 65.9207 14.8117H62.4444Z" fill="white"/>
<path d="M112.785 10.8274C112.915 10.8274 112.915 10.8274 112.915 10.8274C112.915 2.85962 112.915 2.85959 112.915 2.85959C116.005 2.85959 116.005 2.85959 116.005 2.85959C116.005 14.8117 116.005 14.8117 116.005 14.8117C112.398 14.8117 112.398 14.8117 112.398 14.8117C112.398 14.8117 105.702 6.97188 105.576 6.97188C105.576 14.8117 105.576 14.8117 105.576 14.8117C102.487 14.8117 102.487 14.8117 102.487 14.8117C102.487 2.8596 102.487 2.85959 102.487 2.85959C106.089 2.85959 106.089 2.85959 106.089 2.85959C112.785 10.8273 112.785 10.8274 112.785 10.8274Z" fill="white"/>
<path d="M79.3086 11.2129C79.3086 10.4417 78.7958 9.92775 77.766 9.92775C71.713 9.92775 71.713 9.92775 71.713 9.92775C71.713 12.6265 71.713 12.6265 71.713 12.6265C77.766 12.6265 77.766 12.6265 77.766 12.6265C78.7958 12.6265 79.3086 12.1125 79.3086 11.2129ZM78.9218 6.32948C78.9218 5.68666 78.4091 5.17272 77.5096 5.17272C71.713 5.17272 71.713 5.17272 71.713 5.17272C71.713 7.61467 71.713 7.61468 71.713 7.61468C77.6356 7.61468 77.6356 7.61468 77.6356 7.61468C78.2788 7.61468 78.9218 7.10066 78.9218 6.32948ZM82.5285 11.3418C82.5285 13.3977 80.9859 14.8117 78.5395 14.8117C68.7538 14.8117 68.7538 14.8117 68.7538 14.8117C68.7538 2.8596 68.7538 2.85959 68.7538 2.85959C78.5395 2.85959 78.5395 2.85959 78.5395 2.85959C80.5992 2.85959 82.0157 4.53031 82.0157 6.32948C82.0157 8.00022 80.8555 8.64261 80.8555 8.64261C80.8555 8.64261 82.5285 9.41381 82.5285 11.3418Z" fill="white"/>
</svg>
