<svg width="73" height="73" viewBox="0 0 73 73" fill="none" xmlns="http://www.w3.org/2000/svg">
<circle cx="36.625" cy="36.6074" r="36.375" fill="#00C6C3" fill-opacity="0.2"/>
<path d="M28.2917 26.6076C28.2917 25.6871 29.0379 24.9409 29.9584 24.9409H43.2917C44.2122 24.9409 44.9584 25.6871 44.9584 26.6076V29.9409C44.9584 30.8614 44.2122 31.6076 43.2917 31.6076H29.9584C29.0379 31.6076 28.2917 30.8614 28.2917 29.9409V26.6076ZM30.7917 29.1076H42.4584V27.4409H30.7917V29.1076ZM23.2917 24.1076C23.2917 21.8064 25.1572 19.9409 27.4584 19.9409H46.625C48.9262 19.9409 50.7917 21.8064 50.7917 24.1076V47.8576C50.7917 48.5479 50.232 49.1076 49.5417 49.1076H25.7917C25.7917 50.0281 26.5379 50.7743 27.4584 50.7743H49.5417C50.232 50.7743 50.7917 51.3339 50.7917 52.0243C50.7917 52.7146 50.232 53.2743 49.5417 53.2743H27.4584C25.1572 53.2743 23.2917 51.4088 23.2917 49.1076V24.1076ZM25.7917 46.6076H48.2917V24.1076C48.2917 23.1871 47.5455 22.4409 46.625 22.4409H27.4584C26.5379 22.4409 25.7917 23.1871 25.7917 24.1076V46.6076Z" fill="#020024"/>
</svg>
