<svg width="73" height="73" viewBox="0 0 73 73" fill="none" xmlns="http://www.w3.org/2000/svg">
<circle cx="36.375" cy="36.6074" r="36.375" fill="#00C6C3" fill-opacity="0.2"/>
<path d="M28.0417 28.2743V24.9409C28.0417 22.1795 30.2803 19.9409 33.0417 19.9409C34.3223 19.9409 35.4903 20.4224 36.375 21.2141C37.2597 20.4223 38.4278 19.9409 39.7083 19.9409C42.4698 19.9409 44.7083 22.1795 44.7083 24.9409V28.2743H47.2083C48.589 28.2743 49.7083 29.3935 49.7083 30.7743V47.4492C49.7083 50.6662 47.1003 53.2743 43.8833 53.2743H29.7083C26.0264 53.2743 23.0417 50.2894 23.0417 46.6076V30.7743C23.0417 29.3935 24.161 28.2743 25.5417 28.2743H28.0417ZM39.1 50.7743C38.4433 49.8314 38.0583 48.6852 38.0583 47.4492V30.7743H25.5417V46.6076C25.5417 48.9088 27.4072 50.7743 29.7083 50.7743H39.1ZM35.5417 28.2743V24.9409C35.5417 23.5602 34.4223 22.4409 33.0417 22.4409C31.661 22.4409 30.5417 23.5602 30.5417 24.9409V28.2743H35.5417ZM38.0417 28.2743H42.2083V24.9409C42.2083 23.5602 41.089 22.4409 39.7083 22.4409C38.9333 22.4409 38.2408 22.7935 37.7823 23.3471C37.9505 23.8476 38.0417 24.3836 38.0417 24.9409V28.2743ZM40.5583 47.4492C40.5583 49.2856 42.047 50.7743 43.8833 50.7743C45.7197 50.7743 47.2083 49.2856 47.2083 47.4492V30.7743H40.5583V47.4492Z" fill="#020024"/>
</svg>
