<svg width="42" height="42" viewBox="0 0 42 42" fill="none" xmlns="http://www.w3.org/2000/svg">
<rect width="41.33" height="41.25" transform="translate(0.00500488 0.375)" fill="white"/>
<path d="M24.129 11.2885C24.5211 11.2885 24.9133 11.2885 25.3173 11.2885C25.3173 11.3488 25.3173 11.4091 25.3173 11.4713C25.6793 11.5618 26.0413 11.6523 26.4142 11.7455C26.4142 11.8058 26.4142 11.8662 26.4142 11.9283C26.5349 11.9283 26.6555 11.9283 26.7798 11.9283C26.7798 11.9886 26.7798 12.049 26.7798 12.1111C26.8439 12.1199 26.908 12.1286 26.9741 12.1376C27.2854 12.2145 27.5112 12.3453 27.7853 12.511C27.8777 12.5664 27.9701 12.6218 28.0653 12.6789C28.1539 12.7328 28.2425 12.7868 28.3338 12.8424C28.5832 12.9922 28.8327 13.1416 29.0826 13.2905C29.2351 13.3826 29.2351 13.3826 29.3907 13.4766C29.4926 13.5377 29.5946 13.5989 29.6996 13.6619C29.9501 13.8286 30.135 14.001 30.3448 14.2135C30.4353 14.2437 30.5258 14.2739 30.619 14.3049C30.8932 14.6198 30.8932 14.6198 30.8932 14.8534C30.9471 14.8767 31.0009 14.9001 31.0564 14.9241C31.6272 15.2402 32.0644 15.9267 32.3558 16.4988C32.3558 16.5591 32.3558 16.6194 32.3558 16.6816C32.4463 16.7117 32.5368 16.7419 32.63 16.773C32.934 17.1446 33.1258 17.5724 33.2813 18.0238C33.3828 18.2924 33.5062 18.5477 33.6298 18.8068C33.8907 19.3692 34.104 19.9252 34.2754 20.5208C34.3096 20.6302 34.3437 20.7397 34.3789 20.8525C34.6477 21.8017 34.6731 22.7402 34.6696 23.7201C34.6694 23.7864 34.6691 23.8528 34.6689 23.9212C34.6621 25.0491 34.6621 25.0491 34.5496 25.274C34.5311 25.426 34.5163 25.5785 34.5039 25.7311C34.4684 26.1678 34.4684 26.1678 34.3668 26.3709C34.3065 26.3709 34.2461 26.3709 34.184 26.3709C34.184 26.4916 34.184 26.6123 34.184 26.7366C34.1236 26.7366 34.0633 26.7366 34.0012 26.7366C34.0068 26.8158 34.0125 26.8949 34.0183 26.9765C33.9987 27.3292 33.8913 27.5244 33.7269 27.8335C33.663 28.0835 33.663 28.0835 33.6355 28.2905C33.5752 28.2905 33.5149 28.2905 33.4527 28.2905C33.438 28.3883 33.438 28.3883 33.4231 28.488C33.3549 28.7743 33.2479 28.9882 33.1042 29.2446C33.0305 29.3763 33.0305 29.3763 32.9553 29.5106C32.8444 29.6993 32.7311 29.8814 32.6072 30.0616C32.4395 30.2953 32.4395 30.2953 32.3444 30.5586C32.2644 30.7586 32.2644 30.7586 32.0816 30.85C32.0439 30.9292 32.0062 31.0083 31.9673 31.0899C31.6791 31.6457 31.338 31.9963 30.8018 32.3125C30.7191 32.4073 30.6392 32.5046 30.5619 32.6039C30.4544 32.7311 30.4544 32.7311 30.3448 32.861C30.2543 32.861 30.1638 32.861 30.0706 32.861C30.0102 32.9816 29.9499 33.1023 29.8877 33.2266C29.8274 33.2266 29.7671 33.2266 29.7049 33.2266C29.7049 33.2869 29.7049 33.3473 29.7049 33.4094C29.3911 33.6528 29.0738 33.8661 28.728 34.0607C28.4361 34.2138 28.4361 34.2138 28.2481 34.3806C27.9614 34.5718 27.6639 34.6164 27.3283 34.6891C27.3283 34.7495 27.3283 34.8098 27.3283 34.872C27.1473 34.872 26.9663 34.872 26.7798 34.872C26.7798 34.9323 26.7798 34.9926 26.7798 35.0548C26.234 35.2863 25.7326 35.4496 25.1345 35.4204C25.173 35.1607 25.2338 35.0451 25.403 34.8377C25.6049 34.5808 25.6871 34.3618 25.7743 34.0493C25.8347 34.0493 25.895 34.0493 25.9572 34.0493C25.9572 33.989 25.9572 33.9286 25.9572 33.8665C25.9984 33.8291 26.0396 33.7918 26.0821 33.7533C26.2873 33.5319 26.3398 33.3148 26.4256 33.0266C26.456 32.9273 26.4864 32.828 26.5178 32.7256C26.7058 31.9625 26.6997 31.2207 26.6941 30.4386C26.6937 30.3286 26.6933 30.2185 26.6929 30.1051C26.6918 29.8354 26.6903 29.5657 26.6884 29.296C26.6281 29.296 26.5678 29.296 26.5056 29.296C26.4755 29.0547 26.4453 28.8134 26.4142 28.5647C26.3539 28.5647 26.2935 28.5647 26.2314 28.5647C26.2314 28.5044 26.2314 28.4441 26.2314 28.3819C26.1711 28.3819 26.1107 28.3819 26.0486 28.3819C26.0297 28.2914 26.0109 28.2009 25.9914 28.1077C25.8384 27.5677 25.4511 27.1727 25.1002 26.748C24.9517 26.5538 24.9517 26.5538 24.9517 26.3709C24.7405 26.3106 24.5294 26.2503 24.3118 26.1881C24.3118 26.1278 24.3118 26.0675 24.3118 26.0053C24.227 25.9827 24.1421 25.96 24.0547 25.9367C23.7633 25.8225 23.7633 25.8225 23.6319 25.6397C23.4236 25.373 23.1694 25.3331 22.8493 25.274C21.6148 25.1582 20.4438 25.1444 19.4146 25.905C19.2022 26.0886 19.0297 26.2709 18.8558 26.4909C18.8027 26.5565 18.7495 26.6222 18.6948 26.6898C18.3877 27.1871 18.3435 27.7115 18.3131 28.2848C18.3096 28.3473 18.306 28.4098 18.3024 28.4742C18.2939 28.6262 18.2862 28.7783 18.2788 28.9304C18.3391 28.9304 18.3995 28.9304 18.4616 28.9304C18.6738 29.2274 18.7758 29.4842 18.8273 29.8445C18.8876 29.8445 18.9479 29.8445 19.0101 29.8445C19.0553 29.935 19.0553 29.935 19.1015 30.0273C19.8076 30.3368 20.4679 30.5585 21.2085 30.2929C21.484 30.1794 21.7551 30.0586 22.0266 29.9359C22.1171 29.9057 22.2076 29.8756 22.3008 29.8445C22.331 29.754 22.3611 29.6635 22.3922 29.5702C22.4836 29.4788 22.575 29.3874 22.6664 29.296C22.7739 29.1041 22.7739 29.1041 22.8493 28.9304C22.9096 28.9304 22.9699 28.9304 23.0321 28.9304C23.0902 29.6942 23.0432 30.2287 22.575 30.85C22.3351 31.1128 22.3351 31.1128 22.118 31.307C22.0746 31.3579 22.0313 31.4088 21.9866 31.4613C21.3094 32.0301 19.9376 31.9164 19.1015 31.8555C19.0412 31.7951 18.9808 31.7348 18.9187 31.6727C18.6837 31.6135 18.6837 31.6135 18.4616 31.5812C18.4616 31.5209 18.4616 31.4606 18.4616 31.3984C18.3938 31.3739 18.3259 31.3494 18.256 31.3242C18.0146 31.2199 17.835 31.1156 17.6389 30.9414C17.6389 30.8811 17.6389 30.8207 17.6389 30.7586C17.5183 30.6982 17.3976 30.6379 17.2733 30.5757C17.2733 30.5154 17.2733 30.4551 17.2733 30.3929C17.217 30.3872 17.1607 30.3814 17.1026 30.3754C16.9077 30.3015 16.9077 30.3015 16.7984 30.0991C16.7704 30.0169 16.7423 29.9348 16.7134 29.8502C16.5929 29.4932 16.5929 29.4932 16.3592 29.2046C16.3478 28.9647 16.3478 28.9647 16.3592 28.7476C16.2989 28.7476 16.2386 28.7476 16.1764 28.7476C16.1103 27.1126 16.3212 25.953 17.4608 24.7027C17.6373 24.5217 17.8193 24.3491 18.0046 24.1771C18.0518 24.1274 18.0991 24.0777 18.1478 24.0264C18.6398 23.5405 19.2747 23.3639 19.9242 23.1716C20.0192 23.1409 20.1141 23.1102 20.212 23.0785C21.1557 22.7947 22.0397 22.7539 23.0207 22.7546C24.2889 22.7724 24.2889 22.7724 25.5001 22.4403C25.6162 22.3939 25.6162 22.3939 25.7347 22.3464C25.9312 22.2568 26.1271 22.1661 26.3228 22.0747C26.3882 22.0465 26.4536 22.0184 26.521 21.9894C26.9774 21.783 27.2085 21.5583 27.5111 21.1606C27.6016 21.1003 27.6921 21.04 27.7853 20.9778C28.6737 19.5898 28.6719 17.9878 28.3338 16.4074C28.0711 15.3895 27.6187 14.2261 26.7798 13.5737C26.7798 13.4832 26.7798 13.3927 26.7798 13.2994C26.7233 13.2731 26.6667 13.2467 26.6085 13.2195C26.4142 13.1166 26.4142 13.1166 26.2314 12.9338C26.1324 12.9055 26.1324 12.9055 26.0314 12.8767C25.7561 12.7421 25.6653 12.6324 25.4773 12.3968C25.1854 12.0414 24.9195 11.8899 24.4871 11.7441C24.3118 11.6541 24.3118 11.6541 24.129 11.2885Z" fill="#909090"/>
<path d="M18.0979 11.9164C18.2932 11.9169 18.4885 11.9164 18.6839 11.9158C18.8081 11.9159 18.9324 11.916 19.0566 11.9162C19.2244 11.9163 19.2244 11.9163 19.3955 11.9165C19.6501 11.9283 19.6501 11.9283 19.7415 12.0197C19.972 12.0562 20.2012 12.0883 20.4328 12.1168C20.4978 12.1251 20.5627 12.1335 20.6297 12.142C20.7906 12.1625 20.9516 12.1826 21.1126 12.2025C21.1126 12.2629 21.1126 12.3232 21.1126 12.3854C21.1688 12.3898 21.225 12.3943 21.2829 12.3989C21.3568 12.4058 21.4307 12.4126 21.5068 12.4196C21.6166 12.4292 21.6166 12.4292 21.7286 12.4389C22.0599 12.4996 22.3196 12.7209 22.5752 12.9338C22.6053 13.0243 22.6355 13.1148 22.6666 13.208C22.8601 13.3292 22.8601 13.3292 23.0951 13.4308C23.6806 13.7103 24.1374 14.0154 24.5862 14.4878C24.6484 14.5481 24.7106 14.6084 24.7747 14.6706C24.9518 14.8534 24.9518 14.8534 25.1289 15.0762C25.3149 15.3169 25.3149 15.3169 25.546 15.5333C25.8545 15.8495 26.1236 16.1264 26.163 16.5787C26.1554 16.6428 26.1479 16.7069 26.1401 16.773C25.6452 16.7303 25.2987 16.6594 24.8604 16.4074C24.8604 16.347 24.8604 16.2867 24.8604 16.2245C24.7096 16.2245 24.5587 16.2245 24.4033 16.2245C24.4033 16.1642 24.4033 16.1039 24.4033 16.0417C24.3091 16.0342 24.2148 16.0266 24.1177 16.0189C23.7313 15.9441 23.5342 15.8067 23.215 15.5847C22.9656 15.5132 22.9656 15.5132 22.758 15.4933C22.758 15.4329 22.758 15.3726 22.758 15.3104C22.6731 15.3161 22.5883 15.3218 22.5009 15.3276C22.2095 15.3104 22.2095 15.3104 22.0496 15.179C21.993 15.1083 21.993 15.1083 21.9353 15.0362C21.1765 14.6568 19.9337 14.8377 19.1016 14.8534C19.0385 14.8531 18.9754 14.8528 18.9104 14.8525C17.8518 14.8479 17.1884 15.0655 16.2679 15.5847C15.4606 15.9503 15.4606 15.9503 15.0796 15.9503C15.0796 16.0106 15.0796 16.071 15.0796 16.1331C14.5849 16.4988 14.5849 16.4988 14.3484 16.4988C14.3484 16.5591 14.3484 16.6194 14.3484 16.6816C14.1985 16.8065 14.0457 16.9279 13.8913 17.0472C13.8272 17.1113 13.7631 17.1754 13.6971 17.2415C13.5257 17.4128 13.5257 17.4128 13.2515 17.5957C13.1678 17.7443 13.0846 17.8933 13.0036 18.0434C12.8664 18.2672 12.7065 18.4577 12.5373 18.6583C12.0206 19.2928 11.5581 20.0048 11.4004 20.8178C11.3778 20.931 11.3552 21.0441 11.3319 21.1606C11.2414 21.1908 11.1509 21.2209 11.0576 21.252C11.0463 21.3312 11.035 21.4104 11.0234 21.492C10.9662 21.8005 10.9662 21.8005 10.8728 22.0469C10.7673 22.4034 10.7571 22.7349 10.7591 23.1031C10.759 23.174 10.7588 23.245 10.7586 23.3181C10.7585 23.4674 10.7588 23.6168 10.7596 23.7661C10.7606 23.9936 10.7596 24.221 10.7584 24.4485C10.7585 24.5942 10.7588 24.7399 10.7591 24.8855C10.7588 24.953 10.7584 25.0204 10.758 25.0899C10.7616 25.4916 10.8226 25.8138 10.9662 26.1881C11.0127 26.4201 11.0512 26.6522 11.0887 26.8858C11.1572 27.1313 11.2637 27.2715 11.4233 27.4678C11.5487 27.7386 11.6061 27.8986 11.6061 28.1991C11.6966 28.1991 11.7871 28.1991 11.8803 28.1991C11.8803 28.2896 11.8803 28.3801 11.8803 28.4733C11.9406 28.4733 12.001 28.4733 12.0631 28.4733C12.1395 28.6176 12.1395 28.6176 12.2174 28.7647C12.399 29.0848 12.6219 29.3131 12.8858 29.5702C12.9268 29.6422 12.9678 29.7142 13.0101 29.7884C13.1748 30.0508 13.3511 30.2124 13.5885 30.4101C13.7232 30.5224 13.8555 30.6378 13.9827 30.7586C13.9827 30.8189 13.9827 30.8792 13.9827 30.9414C14.0317 30.964 14.0808 30.9866 14.1313 31.0099C14.8592 31.393 14.8592 31.393 14.9768 31.6955C14.9806 31.7483 14.9843 31.8011 14.9882 31.8555C15.0749 31.8611 15.1617 31.8668 15.251 31.8726C15.5545 31.9151 15.7811 32.0146 16.0509 32.1583C17.3133 32.8212 18.5346 32.8756 19.93 32.8667C20.054 32.8662 20.1779 32.8658 20.3019 32.8654C20.6026 32.8644 20.9033 32.8629 21.204 32.861C21.204 32.8006 21.204 32.7403 21.204 32.6782C21.3487 32.6342 21.4935 32.5905 21.6382 32.5467C21.7188 32.5224 21.7994 32.498 21.8825 32.4728C22.0821 32.4145 22.2816 32.3612 22.4838 32.3125C22.4838 32.2522 22.4838 32.1919 22.4838 32.1297C22.6155 32.0439 22.7473 31.9584 22.8801 31.8744C23.2119 31.6337 23.4506 31.3315 23.5807 30.9414C23.641 30.9414 23.7013 30.9414 23.7635 30.9414C23.7936 30.5191 23.8238 30.0968 23.8549 29.6617C23.9756 29.6918 24.0962 29.722 24.2205 29.7531C24.2205 30.5072 24.2205 31.2613 24.2205 32.0383C24.1602 32.0383 24.0999 32.0383 24.0377 32.0383C23.9394 32.2807 23.8462 32.5213 23.7635 32.7696C23.7032 32.7696 23.6428 32.7696 23.5807 32.7696C23.5543 32.8393 23.5279 32.9091 23.5007 32.9809C23.3978 33.2266 23.3978 33.2266 23.215 33.5008C23.1547 33.5008 23.0944 33.5008 23.0322 33.5008C23.0058 33.5725 22.9794 33.6441 22.9522 33.7179C22.8494 33.9579 22.8494 33.9579 22.6666 34.1407C22.5405 34.1851 22.4125 34.2245 22.2838 34.2607C21.9886 34.3534 21.7678 34.4533 21.524 34.6434C21.0737 34.9909 20.5812 35.1462 20.0157 35.1462C19.9856 35.2367 19.9554 35.3272 19.9243 35.4204C19.8428 35.426 19.7612 35.4315 19.6772 35.4372C19.5167 35.4487 19.5167 35.4487 19.353 35.4604C19.247 35.4678 19.1409 35.4753 19.0316 35.4829C18.753 35.5021 18.753 35.5021 18.556 35.5597C17.5764 35.7895 16.4266 35.5666 15.4453 35.4204C15.4453 35.3601 15.4453 35.2998 15.4453 35.2376C15.3933 35.2418 15.3413 35.2461 15.2878 35.2505C14.8286 35.2719 14.5494 35.2354 14.1534 34.9762C13.8159 34.7701 13.4367 34.6477 13.0686 34.5063C12.8971 34.438 12.7257 34.3695 12.5545 34.3007C12.4779 34.27 12.4013 34.2394 12.3224 34.2078C12.2393 34.1746 12.2393 34.1746 12.1545 34.1407C12.1545 34.0804 12.1545 34.02 12.1545 33.9579C12.104 33.9335 12.0534 33.9091 12.0014 33.884C11.2206 33.4837 10.5223 32.9933 9.96073 32.3125C9.96073 32.2522 9.96073 32.1919 9.96073 32.1297C9.9004 32.1297 9.84007 32.1297 9.77791 32.1297C9.77791 32.0694 9.77791 32.009 9.77791 31.9469C9.71758 31.9469 9.65725 31.9469 9.59509 31.9469C9.59509 31.8865 9.59509 31.8262 9.59509 31.7641C9.53476 31.7641 9.47443 31.7641 9.41228 31.7641C9.20236 31.5299 9.13805 31.446 9.13805 31.1242C9.07772 31.1242 9.01739 31.1242 8.95523 31.1242C8.5228 30.6496 8.5228 30.6496 8.40678 30.3015C8.35022 30.2468 8.29366 30.1922 8.23538 30.1358C7.93725 29.8289 7.79937 29.5038 7.68515 29.0943C7.5784 28.728 7.44752 28.3807 7.30416 28.0277C7.27959 27.966 7.25502 27.9042 7.22971 27.8406C7.12382 27.5405 7.12382 27.5405 6.94423 27.285C6.92259 27.0389 6.90566 26.7946 6.89282 26.548C6.88887 26.4787 6.88492 26.4093 6.88085 26.3379C6.87113 26.1661 6.86193 25.9943 6.85282 25.8225C6.79249 25.8225 6.73216 25.8225 6.67001 25.8225C6.67001 24.6159 6.67001 23.4093 6.67001 22.1661C6.73034 22.1661 6.79067 22.1661 6.85282 22.1661C6.84776 22.064 6.84269 21.9618 6.83747 21.8565C6.83798 21.3895 6.95857 20.9804 7.09849 20.5379C7.12333 20.4573 7.14818 20.3767 7.17378 20.2937C7.35925 19.7063 7.58352 19.1526 7.85832 18.6012C7.92953 18.4434 8.00003 18.2854 8.06971 18.127C8.09952 18.0597 8.12933 17.9924 8.16004 17.9231C8.18114 17.8754 8.20223 17.8277 8.22396 17.7785C8.28429 17.7785 8.34462 17.7785 8.40678 17.7785C8.44389 17.7034 8.44389 17.7034 8.48176 17.6267C9.08914 16.422 9.08914 16.422 9.50368 15.9503C9.5527 15.8805 9.60172 15.8108 9.65222 15.7389C9.6937 15.688 9.73518 15.6371 9.77791 15.5847C9.83824 15.5847 9.89857 15.5847 9.96073 15.5847C9.98335 15.5357 10.006 15.4866 10.0293 15.4361C10.3017 14.9185 10.5435 14.6196 11.0462 14.3303C11.2392 14.2143 11.4077 14.0858 11.5832 13.945C12.2699 13.4202 13.0992 13.0869 13.8913 12.751C13.9655 12.7189 14.0398 12.6869 14.1163 12.6539C14.5613 12.4676 14.9867 12.3308 15.4624 12.2475C15.6494 12.2115 15.6494 12.2115 15.8109 12.0197C16.5527 11.8704 17.3433 11.9141 18.0979 11.9164Z" fill="#909090"/>
<circle cx="16.1654" cy="8.81495" r="2.47349" fill="#909090"/>
<circle cx="31.8818" cy="12.7967" r="1.50825" fill="#909090"/>
<circle cx="17.9078" cy="22.6248" r="0.731272" fill="#909090"/>
</svg>
