<svg width="43" height="42" viewBox="0 0 43 42" fill="none" xmlns="http://www.w3.org/2000/svg">
<rect width="41.33" height="41.25" transform="translate(0.741333 0.375)" fill="white"/>
<path d="M21.8142 14.1122C22.0107 14.1124 22.2071 14.1106 22.4036 14.1087C24.8928 14.0992 27.4145 14.8639 29.5496 16.1339C29.5496 16.1846 29.5496 16.2353 29.5496 16.2875C29.5918 16.295 29.634 16.3026 29.6775 16.3103C30.2292 16.4764 30.736 16.9126 31.1629 17.2862C31.2224 17.3331 31.282 17.3801 31.3433 17.4284C31.7725 17.7681 32.1717 18.1252 32.5601 18.5106C32.6045 18.5542 32.6488 18.5978 32.6945 18.6428C33.0067 18.9573 33.0067 18.9573 33.0067 19.1299C33.0508 19.147 33.095 19.164 33.1405 19.1816C33.3675 19.3151 33.4765 19.4738 33.6309 19.6869C33.6605 19.7278 33.6902 19.7686 33.7208 19.8107C33.7839 19.8978 33.8468 19.9851 33.9095 20.0726C34.0028 20.2019 34.0981 20.3295 34.1941 20.4569C34.8817 21.3791 35.4243 22.3752 35.8971 23.4224C35.9235 23.4804 35.9498 23.5384 35.977 23.5982C36.0966 23.8715 36.1564 24.0513 36.1564 24.3539C34.0516 25.3822 31.7791 25.6166 29.4728 25.199C29.4175 25.1891 29.3622 25.1792 29.3052 25.1689C28.0516 24.9393 26.8185 24.5885 25.6317 24.1234C25.5465 24.0906 25.4613 24.0577 25.3736 24.0238C24.6624 23.7447 23.9653 23.4378 23.2685 23.1249C22.8925 22.9566 22.5155 22.7907 22.1374 22.6272C21.9824 22.56 21.8278 22.4921 21.6741 22.4219C21.2426 22.2333 20.7954 22.114 20.3405 21.9964C20.2779 21.9799 20.2154 21.9634 20.1509 21.9464C16.7013 21.0905 12.5253 21.9465 9.52317 23.754C9.05893 24.041 8.62309 24.3424 8.22768 24.7215C8.11605 24.8148 8.11605 24.8148 7.9624 24.8148C7.9624 24.8655 7.9624 24.9162 7.9624 24.9685C7.88635 24.9938 7.81029 25.0192 7.73193 25.0453C8.10969 22.801 9.44441 20.6846 10.8817 18.9763C10.917 18.9314 10.9524 18.8866 10.9888 18.8404C11.2496 18.5098 11.5598 18.2476 11.8804 17.9776C11.9765 17.8961 12.0725 17.8145 12.1685 17.7327C12.2093 17.6984 12.2501 17.664 12.2921 17.6286C12.387 17.5443 12.478 17.4554 12.5667 17.3645C12.8451 17.0924 13.1724 16.8898 13.4937 16.6716C13.5814 16.6103 13.6691 16.549 13.7568 16.4877C15.2233 15.4719 16.8025 14.8984 18.5256 14.4534C18.5814 14.4387 18.6372 14.424 18.6947 14.4089C19.723 14.1577 20.7609 14.1095 21.8142 14.1122Z" fill="#909090"/>
<path d="M15.9903 22.6398C16.082 22.64 16.082 22.64 16.1756 22.6402C17.1174 22.6433 18.0252 22.6932 18.948 22.8943C19.0021 22.9054 19.0562 22.9165 19.112 22.9279C20.2281 23.1585 21.3383 23.4804 22.4041 23.8837C22.7275 24.0041 23.0537 24.116 23.3797 24.2291C24.0576 24.4651 24.73 24.7136 25.4011 24.9685C25.8344 25.133 26.2698 25.2904 26.7071 25.4438C26.7666 25.4648 26.8261 25.4857 26.8874 25.5073C27.0322 25.5582 27.1769 25.6091 27.3217 25.6599C27.3217 25.7106 27.3217 25.7613 27.3217 25.8136C26.1569 26.3553 25.5473 26.3939 24.3256 25.9672C22.6333 25.3849 20.9431 24.8865 19.1832 24.5556C19.1055 24.5409 19.1055 24.5409 19.0262 24.5259C18.1188 24.3559 17.2442 24.2638 16.3216 24.2723C16.2485 24.2726 16.1753 24.273 16.1 24.2733C15.9226 24.2742 15.7452 24.2755 15.5678 24.2771C15.6332 24.2921 15.6332 24.2921 15.7 24.3075C17.7574 24.7825 17.7574 24.7825 18.5698 25.1373C18.8435 25.2516 19.124 25.3466 19.4041 25.4438C19.464 25.4648 19.5238 25.4857 19.5855 25.5073C19.7315 25.5583 19.8775 25.6091 20.0235 25.6599C20.0235 25.7106 20.0235 25.7613 20.0235 25.8136C20.3024 25.8643 20.5812 25.915 20.8686 25.9672C20.8686 26.0179 20.8686 26.0686 20.8686 26.1208C20.9331 26.1304 20.9977 26.1399 21.0642 26.1497C21.3448 26.2004 21.6122 26.2733 21.8865 26.3513C22.3396 26.477 22.7799 26.5597 23.2501 26.5818C23.2501 26.6325 23.2501 26.6832 23.2501 26.7354C23.3246 26.7234 23.3992 26.7115 23.476 26.6991C23.8661 26.6433 24.2579 26.6325 24.6513 26.6188C24.9426 26.6057 25.2105 26.5785 25.4926 26.5029C25.7598 26.4346 25.9725 26.4117 26.2462 26.4185C26.319 26.4199 26.3919 26.4213 26.467 26.4227C26.5209 26.4245 26.5748 26.4263 26.6303 26.4281C26.6873 26.6333 26.719 26.7706 26.66 26.9776C26.5165 27.1687 26.3745 27.2246 26.1549 27.3164C26.0787 27.3486 26.0024 27.3808 25.9239 27.4139C25.8528 27.4435 25.7817 27.4732 25.7084 27.5037C25.6181 27.548 25.5278 27.5924 25.4347 27.6381C25.026 27.7867 24.5909 27.8738 24.1719 27.7341C24.1719 27.7848 24.1719 27.8355 24.1719 27.8878C23.5469 27.9097 22.9446 27.8251 22.3282 27.7341C22.3282 27.6834 22.3282 27.6327 22.3282 27.5805C22.1761 27.5805 22.024 27.5805 21.8672 27.5805C21.8672 27.5298 21.8672 27.4791 21.8672 27.4268C21.8224 27.4416 21.7775 27.4563 21.7313 27.4715C21.4939 27.516 21.3307 27.425 21.1128 27.3356C20.9516 27.2755 20.8022 27.2414 20.6333 27.2108C20.261 27.1339 19.9233 26.9917 19.5727 26.8471C19.024 26.623 18.4651 26.436 17.9006 26.256C17.7793 26.2171 17.6582 26.1776 17.5373 26.1376C15.352 25.415 12.8366 25.0599 10.5743 25.6599C10.5039 25.6784 10.4336 25.697 10.3611 25.7161C9.92084 25.8332 9.48215 25.9548 9.04476 26.0822C8.88418 26.1208 8.88418 26.1208 8.65371 26.1208C8.65371 26.1715 8.65371 26.2223 8.65371 26.2745C8.59142 26.2969 8.52913 26.3193 8.46495 26.3423C7.9399 26.5367 7.45622 26.7535 6.97471 27.0397C6.92034 27.0661 6.86597 27.0924 6.80996 27.1195C6.75925 27.0942 6.70855 27.0688 6.65631 27.0427C7.06684 26.6168 7.47567 26.2141 7.9542 25.8649C8.12479 25.7353 8.12479 25.7353 8.2915 25.5567C9.08937 24.776 10.1097 24.2327 11.1026 23.7432C11.2455 23.6725 11.3871 23.5994 11.5286 23.526C12.226 23.1781 12.9647 22.9806 13.724 22.8175C13.7911 22.8029 13.8582 22.7884 13.9273 22.7734C14.6145 22.6413 15.2933 22.6366 15.9903 22.6398Z" fill="#909090"/>
<path d="M13.9745 24.5331C14.0487 24.5405 14.1228 24.5479 14.1993 24.5556C14.296 24.5666 14.296 24.5666 14.3946 24.5778C14.5734 24.5846 14.7051 24.5557 14.8763 24.5076C15.1378 24.4969 15.3181 24.5012 15.5677 24.5844C15.7323 24.5545 15.7323 24.5545 15.875 24.5076C15.875 24.5583 15.875 24.609 15.875 24.6612C15.9329 24.6003 15.9329 24.6003 15.992 24.5382C16.2267 24.4057 16.3529 24.4405 16.6073 24.5081C16.6869 24.5316 16.6869 24.5316 16.768 24.5556C16.8228 24.5706 16.8775 24.5857 16.934 24.6012C17.0935 24.6454 17.2525 24.6916 17.4114 24.7381C17.5265 24.77 17.5265 24.77 17.644 24.8026C17.9635 24.8937 18.2615 25.0033 18.5665 25.1361C18.8413 25.2506 19.1228 25.3463 19.404 25.4439C19.4639 25.4648 19.5237 25.4858 19.5854 25.5073C19.7314 25.5584 19.8774 25.6092 20.0234 25.6599C20.0234 25.7106 20.0234 25.7613 20.0234 25.8136C20.4417 25.8896 20.4417 25.8896 20.8684 25.9672C20.8684 26.0179 20.8684 26.0686 20.8684 26.1209C20.933 26.1304 20.9976 26.1399 21.0641 26.1497C21.3447 26.2005 21.6121 26.2733 21.8864 26.3513C22.3395 26.477 22.7798 26.5597 23.25 26.5818C23.25 26.6325 23.25 26.6832 23.25 26.7354C23.3245 26.7235 23.3991 26.7115 23.4759 26.6991C23.866 26.6433 24.2578 26.6325 24.6512 26.6189C24.9425 26.6057 25.2104 26.5785 25.4925 26.5029C25.7597 26.4346 25.9724 26.4117 26.2461 26.4186C26.3554 26.4206 26.3554 26.4206 26.4669 26.4228C26.5477 26.4254 26.5477 26.4254 26.6302 26.4282C26.6871 26.6333 26.7189 26.7706 26.6599 26.9776C26.5164 27.1688 26.3744 27.2246 26.1548 27.3164C26.0786 27.3486 26.0023 27.3808 25.9238 27.4139C25.8527 27.4436 25.7816 27.4732 25.7083 27.5037C25.618 27.548 25.5277 27.5924 25.4346 27.6381C25.0259 27.7867 24.5907 27.8738 24.1718 27.7341C24.1718 27.7848 24.1718 27.8356 24.1718 27.8878C23.5468 27.9097 22.9445 27.8251 22.3281 27.7341C22.3281 27.6834 22.3281 27.6327 22.3281 27.5805C22.176 27.5805 22.0239 27.5805 21.8671 27.5805C21.8671 27.5298 21.8671 27.4791 21.8671 27.4269C21.8223 27.4416 21.7774 27.4564 21.7312 27.4716C21.4938 27.5161 21.3306 27.425 21.1127 27.3356C20.9515 27.2755 20.8021 27.2414 20.6332 27.2108C20.2609 27.1339 19.9232 26.9917 19.5725 26.8471C19.0239 26.623 18.465 26.436 17.9005 26.256C17.7792 26.2171 17.6581 26.1776 17.5372 26.1376C15.2416 25.3785 12.7981 25.1452 10.4205 25.6599C10.4712 25.5839 10.5219 25.5078 10.5742 25.4295C10.6041 25.2766 10.6304 25.1229 10.651 24.9685C10.7144 24.9479 10.7778 24.9273 10.8431 24.9061C11.0291 24.843 11.2132 24.7737 11.3952 24.6996C12.2626 24.3789 13.0674 24.4408 13.9745 24.5331Z" fill="#C0BFBE"/>
<path d="M14.9532 24.2003C17.4022 24.168 17.4022 24.168 18.4102 24.3539C18.5413 24.3775 18.5413 24.3775 18.675 24.4015C18.9871 24.458 19.2989 24.516 19.6106 24.5748C19.661 24.5842 19.7114 24.5937 19.7633 24.6034C20.4778 24.7384 21.1708 24.914 21.8672 25.1222C22.0186 25.1653 22.1701 25.2082 22.3216 25.2509C23.1341 25.483 23.9379 25.724 24.7273 26.027C25.3544 26.2594 25.9133 26.3711 26.5438 26.092C27.0079 25.8919 27.0079 25.8919 27.1926 25.849C27.2352 25.8373 27.2778 25.8256 27.3217 25.8136C27.347 25.7629 27.3724 25.7122 27.3985 25.6599C27.4746 25.6853 27.5506 25.7106 27.629 25.7367C27.629 25.686 27.629 25.6353 27.629 25.5831C27.7003 25.5522 27.7003 25.5522 27.773 25.5207C27.9593 25.4329 27.9593 25.4329 28.0899 25.199C28.3684 25.1077 28.3684 25.1077 28.6277 25.0453C28.5408 25.2664 28.4682 25.3571 28.2772 25.5063C28.0749 25.6722 28.0584 25.7228 28.0131 25.9672C28.0612 25.971 28.1093 25.9747 28.1589 25.9786C28.2217 25.9843 28.2845 25.9901 28.3492 25.996C28.4116 26.0014 28.474 26.0067 28.5382 26.0122C28.7045 26.044 28.7045 26.044 28.8581 26.1977C28.8074 26.223 28.7567 26.2484 28.7045 26.2745C28.6538 26.2491 28.6031 26.2238 28.5508 26.1977C28.5255 26.2737 28.5001 26.3498 28.474 26.4281C28.4233 26.4028 28.3726 26.3774 28.3204 26.3513C28.295 26.2753 28.2697 26.1992 28.2436 26.1208C28.1421 26.1208 28.0407 26.1208 27.9363 26.1208C27.9372 26.169 27.938 26.2171 27.939 26.2667C27.9397 26.3295 27.9403 26.3923 27.9411 26.4569C27.942 26.5193 27.9428 26.5817 27.9438 26.646C27.9363 26.8123 27.9363 26.8123 27.8594 26.9659C27.9955 26.9882 27.9955 26.9882 28.1343 27.0109C28.254 27.0311 28.3736 27.0513 28.4932 27.0715C28.5529 27.0812 28.6127 27.0909 28.6742 27.1009C28.9688 27.1513 29.2084 27.2053 29.4727 27.35C29.5488 27.35 29.6248 27.35 29.7032 27.35C29.7032 27.4007 29.7032 27.4514 29.7032 27.5037C29.209 27.5355 28.8899 27.4735 28.4392 27.2741C28.1822 27.172 27.9264 27.129 27.6551 27.0814C27.3963 27.0257 27.1758 26.9262 26.9376 26.8123C26.8615 26.8883 26.7855 26.9644 26.7071 27.0427C26.6321 26.8178 26.6239 26.662 26.6303 26.4281C26.4995 26.4448 26.4995 26.4448 26.3662 26.4617C26.0675 26.4995 25.7685 26.531 25.4689 26.5602C25.3178 26.5751 25.3178 26.5751 25.1706 26.6586C25.0519 26.6703 24.9327 26.6777 24.8135 26.6829C24.7072 26.6877 24.7072 26.6877 24.5987 26.6927C24.5244 26.6957 24.4501 26.6987 24.3736 26.7018C24.2999 26.7051 24.2262 26.7085 24.1503 26.7119C23.8497 26.7251 23.551 26.7354 23.2501 26.7354C23.2501 26.6847 23.2501 26.634 23.2501 26.5818C23.1959 26.5965 23.1417 26.6113 23.0859 26.6265C22.8311 26.6637 22.6668 26.6262 22.4194 26.5578C22.3387 26.536 22.258 26.5142 22.1748 26.4918C22.0987 26.4708 22.0225 26.4498 21.9441 26.4281C21.8321 26.4006 21.7201 26.3733 21.608 26.3465C21.3568 26.2816 21.1133 26.2065 20.8686 26.1208C20.8686 26.0701 20.8686 26.0194 20.8686 25.9672C20.5897 25.9165 20.3108 25.8658 20.0235 25.8136C20.0235 25.7629 20.0235 25.7122 20.0235 25.6599C19.9796 25.6468 19.9358 25.6338 19.8906 25.6203C19.7572 25.5804 19.6238 25.5404 19.4905 25.5003C19.3274 25.4511 19.1641 25.4024 19.0008 25.3538C18.9152 25.3281 18.8297 25.3023 18.7415 25.2758C18.662 25.252 18.5825 25.2283 18.5005 25.2038C18.2566 25.1222 18.2566 25.1222 17.9973 25.0093C17.6954 24.8818 17.3956 24.7868 17.0802 24.6996C17.0213 24.6832 16.9623 24.6668 16.9016 24.6499C16.2601 24.4776 15.6098 24.3726 14.9532 24.2771C14.9532 24.2517 14.9532 24.2264 14.9532 24.2003Z" fill="#FBF9F8"/>
<path d="M16.1824 24.4307C16.2584 24.5448 16.2584 24.5448 16.336 24.6612C15.9062 24.6612 15.4945 24.6555 15.0693 24.5937C14.8655 24.5772 14.8655 24.5772 14.6234 24.6252C14.3108 24.6647 14.0325 24.6367 13.724 24.5892C12.8178 24.4546 11.9452 24.4836 11.112 24.8917C11.0407 24.9123 10.9694 24.9329 10.896 24.9541C10.6554 25.0847 10.6571 25.2527 10.5743 25.5063C10.2586 25.7439 9.90217 25.8374 9.52757 25.9432C9.46894 25.9605 9.41032 25.9777 9.34991 25.9955C9.11151 26.0644 8.90308 26.1208 8.65371 26.1208C8.65371 26.1715 8.65371 26.2222 8.65371 26.2745C8.59142 26.2969 8.52913 26.3192 8.46495 26.3423C7.9399 26.5367 7.45622 26.7535 6.97471 27.0397C6.92034 27.0661 6.86597 27.0924 6.80996 27.1195C6.75925 27.0942 6.70855 27.0688 6.65631 27.0427C6.90983 26.7892 7.16334 26.5357 7.42454 26.2745C7.47524 26.2998 7.52595 26.3252 7.57819 26.3513C7.85389 26.3 7.85389 26.3 8.11595 26.1977C8.1413 26.1216 8.16665 26.0455 8.19277 25.9672C8.36022 25.8634 8.36022 25.8634 8.56728 25.7655C8.63522 25.7328 8.70315 25.7002 8.77314 25.6665C8.961 25.5831 8.961 25.5831 9.19147 25.5063C9.22474 25.4682 9.25802 25.4302 9.2923 25.391C9.47423 25.2293 9.64586 25.2253 9.88287 25.199C9.88287 25.1483 9.88287 25.0976 9.88287 25.0453C10.7613 24.7301 11.6185 24.4536 12.5432 24.3161C12.7849 24.2849 12.7849 24.2849 12.9476 24.2372C13.9129 24.0168 15.2427 24.1179 16.1824 24.4307Z" fill="#909090"/>
</svg>
