<svg width="73" height="73" viewBox="0 0 73 73" fill="none" xmlns="http://www.w3.org/2000/svg">
<circle cx="36.625" cy="36.6074" r="36.375" fill="#00C6C3" fill-opacity="0.2"/>
<path d="M43.2687 23.2731C43.061 21.3985 41.4715 19.9407 39.5417 19.9407H33.7084C31.7784 19.9407 30.189 21.3985 29.9813 23.2731L27.0417 23.274C24.9706 23.274 23.2917 24.9529 23.2917 27.024V49.524C23.2917 51.595 24.9706 53.274 27.0417 53.274H34.9607C34.9487 52.9532 34.9815 52.622 35.0654 52.2865L35.4435 50.774H27.0417C26.3513 50.774 25.7917 50.2143 25.7917 49.524V27.024C25.7917 26.3337 26.3513 25.774 27.0417 25.774L30.5901 25.7743C31.2628 26.7792 32.4083 27.4407 33.7084 27.4407H39.5417C40.8417 27.4407 41.9874 26.7791 42.66 25.7743L46.2084 25.774C46.8987 25.774 47.4584 26.3337 47.4584 27.024V36.375C48.1869 35.708 49.0519 35.2737 49.9584 35.072V27.024C49.9584 24.9529 48.2794 23.274 46.2084 23.274L43.2687 23.2731ZM43.283 23.4339L43.2917 23.6907C43.2917 23.6044 43.2889 23.5188 43.283 23.4339ZM33.7084 22.4407H39.5417C40.232 22.4407 40.7917 23.0003 40.7917 23.6907C40.7917 24.381 40.232 24.9407 39.5417 24.9407H33.7084C33.018 24.9407 32.4584 24.381 32.4584 23.6907C32.4584 23.0003 33.018 22.4407 33.7084 22.4407ZM38.885 44.9407H29.9584C29.268 44.9407 28.7084 45.5003 28.7084 46.1907C28.7084 46.881 29.268 47.4407 29.9584 47.4407H36.5967C36.838 47.0593 37.1217 46.704 37.4437 46.382L38.885 44.9407ZM36.625 40.774H29.9584C29.268 40.774 28.7084 40.2143 28.7084 39.524C28.7084 38.8337 29.268 38.274 29.9584 38.274H36.625C37.3154 38.274 37.875 38.8337 37.875 39.524C37.875 40.2143 37.3154 40.774 36.625 40.774ZM43.2917 34.1073H29.9584C29.268 34.1073 28.7084 33.5477 28.7084 32.8573C28.7084 32.167 29.268 31.6073 29.9584 31.6073H43.2917C43.982 31.6073 44.5417 32.167 44.5417 32.8573C44.5417 33.5477 43.982 34.1073 43.2917 34.1073ZM48.4582 37.7232L38.6207 47.5605C38.0472 48.134 37.6404 48.8527 37.4435 49.6397L36.6807 52.6908C36.349 54.0177 37.551 55.2197 38.8779 54.8878L41.929 54.125C42.7159 53.9283 43.4345 53.5215 44.0082 52.9478L53.8455 43.1105C55.3332 41.6228 55.3332 39.2108 53.8455 37.7232C52.3579 36.2353 49.9459 36.2353 48.4582 37.7232Z" fill="#020024"/>
</svg>
