<svg width="73" height="73" viewBox="0 0 73 73" fill="none" xmlns="http://www.w3.org/2000/svg">
<circle cx="36.375" cy="36.6074" r="36.375" fill="#00C6C3" fill-opacity="0.2"/>
<path d="M44.2898 19.9407L51.8795 19.9415L52.0467 19.9647L52.2113 20.0108L52.3118 20.0533C52.4438 20.1114 52.5675 20.1959 52.6763 20.3046L52.7442 20.378L52.8167 20.472L52.907 20.6222L52.9715 20.7727L53.0033 20.8795L53.026 20.9862L53.0417 21.1432L53.0423 28.6972C53.0423 29.3875 52.4828 29.9472 51.7923 29.9472C51.1597 29.9472 50.6367 29.4769 50.5538 28.8668L50.5423 28.6972L50.5417 24.2057L39.8095 34.9402C39.3657 35.384 38.6712 35.4243 38.1818 35.0613L38.0417 34.9403L32.9912 30.0894L23.5089 39.5717C23.0207 40.0598 22.2293 40.0598 21.7411 39.5717C21.2973 39.1278 21.257 38.4335 21.6201 37.9442L21.7411 37.8038L32.1073 27.4378C32.551 26.994 33.2455 26.9537 33.7348 27.3167L33.875 27.4378L38.9255 32.2886L48.7717 22.4407H44.2898C43.657 22.4407 43.134 21.9704 43.0513 21.3603L43.0398 21.1907C43.0398 20.5578 43.5102 20.0349 44.1203 19.9521L44.2898 19.9407ZM22.625 44.9407C23.3154 44.9407 23.875 45.5003 23.875 46.1907V52.024C23.875 52.7143 23.3154 53.274 22.625 53.274C21.9347 53.274 21.375 52.7143 21.375 52.024V46.1907C21.375 45.5003 21.9347 44.9407 22.625 44.9407ZM32.2083 39.524C32.2083 38.8337 31.6487 38.274 30.9583 38.274C30.268 38.274 29.7083 38.8337 29.7083 39.524V52.024C29.7083 52.7143 30.268 53.274 30.9583 53.274C31.6487 53.274 32.2083 52.7143 32.2083 52.024V39.524ZM39.2917 41.6073C39.982 41.6073 40.5417 42.167 40.5417 42.8573V52.024C40.5417 52.7143 39.982 53.274 39.2917 53.274C38.6013 53.274 38.0417 52.7143 38.0417 52.024V42.8573C38.0417 42.167 38.6013 41.6073 39.2917 41.6073ZM48.875 34.524C48.875 33.8337 48.3153 33.274 47.625 33.274C46.9347 33.274 46.375 33.8337 46.375 34.524V52.024C46.375 52.7143 46.9347 53.274 47.625 53.274C48.3153 53.274 48.875 52.7143 48.875 52.024V34.524Z" fill="#020024"/>
</svg>
