<svg width="73" height="73" viewBox="0 0 73 73" fill="none" xmlns="http://www.w3.org/2000/svg">
<circle cx="36.375" cy="36.6074" r="36.375" fill="#00C6C3" fill-opacity="0.2"/>
<path d="M26.7917 22.4409C26.1013 22.4409 25.5417 23.0006 25.5417 23.6909V50.7743H28.875V46.1909C28.875 45.0403 29.8077 44.1076 30.9583 44.1076H41.7917C42.9423 44.1076 43.875 45.0403 43.875 46.1909V50.7743H47.2083V36.1909C47.2083 35.5006 46.6487 34.9409 45.9583 34.9409H42.625C41.9347 34.9409 41.375 34.3813 41.375 33.6909V23.6909C41.375 23.0006 40.8153 22.4409 40.125 22.4409H26.7917ZM31.375 46.6076V50.7743H35.125V46.6076H31.375ZM37.625 46.6076V50.7743H41.375V46.6076H37.625ZM48.4583 53.2743H24.2917C23.6013 53.2743 23.0417 52.7146 23.0417 52.0243V23.6909C23.0417 21.6199 24.7206 19.9409 26.7917 19.9409H40.125C42.196 19.9409 43.875 21.6199 43.875 23.6909V32.4409H45.9583C48.0293 32.4409 49.7083 34.1199 49.7083 36.1909V52.0243C49.7083 52.7146 49.1487 53.2743 48.4583 53.2743ZM28.875 27.4409C28.875 26.5205 29.6212 25.7743 30.5417 25.7743C31.4622 25.7743 32.2083 26.5205 32.2083 27.4409C32.2083 28.3614 31.4622 29.1076 30.5417 29.1076C29.6212 29.1076 28.875 28.3614 28.875 27.4409ZM30.5417 37.4409C29.6212 37.4409 28.875 38.1871 28.875 39.1076C28.875 40.0281 29.6212 40.7743 30.5417 40.7743C31.4622 40.7743 32.2083 40.0281 32.2083 39.1076C32.2083 38.1871 31.4622 37.4409 30.5417 37.4409ZM30.5417 31.6076C29.6212 31.6076 28.875 32.3538 28.875 33.2743C28.875 34.1948 29.6212 34.9409 30.5417 34.9409C31.4622 34.9409 32.2083 34.1948 32.2083 33.2743C32.2083 32.3538 31.4622 31.6076 30.5417 31.6076ZM36.375 25.7743C35.4545 25.7743 34.7083 26.5205 34.7083 27.4409C34.7083 28.3614 35.4545 29.1076 36.375 29.1076C37.2955 29.1076 38.0417 28.3614 38.0417 27.4409C38.0417 26.5205 37.2955 25.7743 36.375 25.7743ZM36.375 37.4409C35.4545 37.4409 34.7083 38.1871 34.7083 39.1076C34.7083 40.0281 35.4545 40.7743 36.375 40.7743C37.2955 40.7743 38.0417 40.0281 38.0417 39.1076C38.0417 38.1871 37.2955 37.4409 36.375 37.4409ZM42.2083 37.4409C41.2878 37.4409 40.5417 38.1871 40.5417 39.1076C40.5417 40.0281 41.2878 40.7743 42.2083 40.7743C43.1288 40.7743 43.875 40.0281 43.875 39.1076C43.875 38.1871 43.1288 37.4409 42.2083 37.4409ZM36.375 31.6076C35.4545 31.6076 34.7083 32.3538 34.7083 33.2743C34.7083 34.1948 35.4545 34.9409 36.375 34.9409C37.2955 34.9409 38.0417 34.1948 38.0417 33.2743C38.0417 32.3538 37.2955 31.6076 36.375 31.6076Z" fill="#020024"/>
</svg>
