<svg width="73" height="73" viewBox="0 0 73 73" fill="none" xmlns="http://www.w3.org/2000/svg">
<circle cx="36.375" cy="36.6074" r="36.375" fill="#00C6C3" fill-opacity="0.2"/>
<path d="M29.7083 26.6073C29.7083 27.5278 28.9621 28.274 28.0417 28.274C27.1212 28.274 26.375 27.5278 26.375 26.6073C26.375 25.6869 27.1212 24.9407 28.0417 24.9407C28.9621 24.9407 29.7083 25.6869 29.7083 26.6073ZM28.0417 33.274C28.9621 33.274 29.7083 32.5278 29.7083 31.6073C29.7083 30.6869 28.9621 29.9407 28.0417 29.9407C27.1212 29.9407 26.375 30.6869 26.375 31.6073C26.375 32.5278 27.1212 33.274 28.0417 33.274ZM29.7083 36.6073C29.7083 37.5278 28.9621 38.274 28.0417 38.274C27.1212 38.274 26.375 37.5278 26.375 36.6073C26.375 35.6868 27.1212 34.9407 28.0417 34.9407C28.9621 34.9407 29.7083 35.6868 29.7083 36.6073ZM29.7083 41.6073C29.7083 42.5278 28.9621 43.274 28.0417 43.274C27.1212 43.274 26.375 42.5278 26.375 41.6073C26.375 40.6868 27.1212 39.9407 28.0417 39.9407C28.9621 39.9407 29.7083 40.6868 29.7083 41.6073ZM28.0417 48.274C28.9621 48.274 29.7083 47.5278 29.7083 46.6073C29.7083 45.6868 28.9621 44.9407 28.0417 44.9407C27.1212 44.9407 26.375 45.6868 26.375 46.6073C26.375 47.5278 27.1212 48.274 28.0417 48.274ZM39.7083 43.274C40.6288 43.274 41.375 42.5278 41.375 41.6073C41.375 40.6868 40.6288 39.9407 39.7083 39.9407C38.7878 39.9407 38.0417 40.6868 38.0417 41.6073C38.0417 42.5278 38.7878 43.274 39.7083 43.274ZM44.7083 43.274C45.6288 43.274 46.375 42.5278 46.375 41.6073C46.375 40.6868 45.6288 39.9407 44.7083 39.9407C43.7878 39.9407 43.0417 40.6868 43.0417 41.6073C43.0417 42.5278 43.7878 43.274 44.7083 43.274ZM44.7083 38.274C45.6288 38.274 46.375 37.5278 46.375 36.6073C46.375 35.6868 45.6288 34.9407 44.7083 34.9407C43.7878 34.9407 43.0417 35.6868 43.0417 36.6073C43.0417 37.5278 43.7878 38.274 44.7083 38.274ZM41.375 36.6073C41.375 37.5278 40.6288 38.274 39.7083 38.274C38.7878 38.274 38.0417 37.5278 38.0417 36.6073C38.0417 35.6868 38.7878 34.9407 39.7083 34.9407C40.6288 34.9407 41.375 35.6868 41.375 36.6073ZM44.7083 33.274C45.6288 33.274 46.375 32.5278 46.375 31.6073C46.375 30.6869 45.6288 29.9407 44.7083 29.9407C43.7878 29.9407 43.0417 30.6869 43.0417 31.6073C43.0417 32.5278 43.7878 33.274 44.7083 33.274ZM41.375 31.6073C41.375 32.5278 40.6288 33.274 39.7083 33.274C38.7878 33.274 38.0417 32.5278 38.0417 31.6073C38.0417 30.6869 38.7878 29.9407 39.7083 29.9407C40.6288 29.9407 41.375 30.6869 41.375 31.6073ZM39.7083 24.9407V23.6907C39.7083 21.6196 38.0293 19.9407 35.9583 19.9407H25.125C23.0539 19.9407 21.375 21.6196 21.375 23.6907V51.1907C21.375 51.881 21.9347 52.4407 22.625 52.4407H50.125C50.8153 52.4407 51.375 51.881 51.375 51.1907V28.6907C51.375 26.6196 49.696 24.9407 47.625 24.9407H39.7083ZM23.875 23.6907C23.875 23.0003 24.4346 22.4407 25.125 22.4407H35.9583C36.6487 22.4407 37.2083 23.0003 37.2083 23.6907V24.9407H36.7917C34.7207 24.9407 33.0417 26.6196 33.0417 28.6907V49.9407H23.875V23.6907ZM40.5417 49.9407V47.4407H43.875V49.9407H40.5417ZM46.375 46.1907C46.375 45.5003 45.8153 44.9407 45.125 44.9407H39.2917C38.6013 44.9407 38.0417 45.5003 38.0417 46.1907V49.9407H35.5417V28.6907C35.5417 28.0003 36.1013 27.4407 36.7917 27.4407H47.625C48.3153 27.4407 48.875 28.0003 48.875 28.6907V49.9407H46.375V46.1907Z" fill="#020024"/>
</svg>
